<?xml version="1.0" encoding="UTF-8" standalone="no"?><!DOCTYPE svg PUBLIC "-//W3C//DTD SVG 1.1//EN" "http://www.w3.org/Graphics/SVG/1.1/DTD/svg11.dtd"><svg width="100%" height="100%" viewBox="0 0 1600 1600" version="1.1" xmlns="http://www.w3.org/2000/svg" xmlns:xlink="http://www.w3.org/1999/xlink" xml:space="preserve" xmlns:serif="http://www.serif.com/" style="fill-rule:evenodd;clip-rule:evenodd;stroke-linecap:round;stroke-linejoin:round;stroke-miterlimit:1.5;"><g><path d="M633.171,840.845c275.194,-277.455 27.058,-712.03 27.058,-712.03c14.9,-0.421 466.124,303.098 347.947,880.989c-36.702,49.07 -87.463,98.519 -156.779,145.929c-72.277,-57.714 -140.477,-131.143 -184.356,-222.411c-14.1,-29.328 -25.221,-60.434 -33.87,-92.477Z" style="fill:none;stroke:#fff;stroke-width:25.61px;"/><path d="M851.401,1155.72c373.438,-255.435 208.273,-569.532 208.273,-569.532c0,0 285.436,369.428 87.694,732.65c0,0 -177.008,-68.126 -295.967,-163.118Z" style="fill:none;stroke:#fff;stroke-width:25.61px;"/><path d="M480.835,1352.69c-72.736,-95.234 -108.622,-220.079 -102.329,-345.472c16.75,-333.727 261.758,-691.673 261.758,-691.673c0,0 -91.594,371.565 26.777,617.776c116.102,241.493 397.715,355.545 479.263,386.966c-88.968,91.57 -208.622,150.927 -346.251,150.927c-121.919,0 -233.487,-44.67 -319.218,-118.524Z" style="fill:none;stroke:#fff;stroke-width:25.61px;"/></g></svg>