<?xml version="1.0" encoding="UTF-8" standalone="no"?><!DOCTYPE svg PUBLIC "-//W3C//DTD SVG 1.1//EN" "http://www.w3.org/Graphics/SVG/1.1/DTD/svg11.dtd"><svg width="100%" height="100%" viewBox="0 0 1600 1600" version="1.1" xmlns="http://www.w3.org/2000/svg" xmlns:xlink="http://www.w3.org/1999/xlink" xml:space="preserve" xmlns:serif="http://www.serif.com/" style="fill-rule:evenodd;clip-rule:evenodd;stroke-linejoin:round;stroke-miterlimit:2;"><g><circle cx="800" cy="981.694" r="489.491" style="fill:url(#_Radial1);"/><g><path d="M633.144,840.815c275.193,-277.455 27.058,-712.029 27.058,-712.029c14.9,-0.422 466.124,303.098 347.947,880.988c-36.703,49.071 -87.611,99.986 -156.926,147.396c-72.277,-57.714 -141.178,-132.019 -185.057,-223.287c-14.1,-29.328 -24.373,-61.024 -33.022,-93.068Z" style="fill:#fff;"/><path d="M791.174,1471.11c-70.327,-86.176 -102.999,-220.589 -20.659,-265.892c476.732,-262.293 289.131,-619.058 289.131,-619.058c0,0 289.796,372.656 92.054,735.878c-89.011,91.955 -213.716,149.151 -351.675,149.151c-2.956,0 -5.907,-0.026 -8.851,-0.079Z" style="fill:#fff;"/><path d="M480.807,1352.66c-72.736,-95.234 -108.622,-220.079 -102.328,-345.472c16.749,-333.727 261.757,-691.673 261.757,-691.673c0,0 -91.594,371.565 26.777,617.776c116.102,241.493 402.501,357.979 484.048,389.4c-88.968,91.57 -213.406,148.493 -351.036,148.493c-121.919,0 -233.487,-44.67 -319.218,-118.524Z" style="fill:#fff;"/></g></g><defs><radialGradient id="_Radial1" cx="0" cy="0" r="1" gradientUnits="userSpaceOnUse" gradientTransform="matrix(-148.38,-560.729,560.729,-148.38,870.276,1052.93)"><stop offset="0" style="stop-color:#fff;stop-opacity:0"/><stop offset="1" style="stop-color:#fff;stop-opacity:0.29"/></radialGradient></defs></svg>