<?xml version="1.0" encoding="UTF-8" standalone="no"?><!DOCTYPE svg PUBLIC "-//W3C//DTD SVG 1.1//EN" "http://www.w3.org/Graphics/SVG/1.1/DTD/svg11.dtd"><svg width="100%" height="100%" viewBox="0 0 1600 1600" version="1.1" xmlns="http://www.w3.org/2000/svg" xmlns:xlink="http://www.w3.org/1999/xlink" xml:space="preserve" xmlns:serif="http://www.serif.com/" style="fill-rule:evenodd;clip-rule:evenodd;stroke-linecap:round;stroke-linejoin:round;stroke-miterlimit:1.5;"><g id="neon"><g><path d="M353.274,764.189c64.463,-64.994 6.338,-166.792 6.338,-166.792c3.49,-0.099 109.189,71 81.506,206.37c-8.597,11.495 -20.488,23.078 -36.725,34.184c-16.931,-13.519 -32.907,-30.72 -43.186,-52.1c-3.302,-6.869 -5.907,-14.156 -7.933,-21.662Z" style="fill:none;stroke:#fff;stroke-width:6px;"/><path d="M404.394,837.948c87.477,-59.836 48.787,-133.413 48.787,-133.413c0,0 66.863,86.538 20.543,171.623c0,0 -41.464,-15.959 -69.33,-38.21Z" style="fill:none;stroke:#fff;stroke-width:6px;"/><path d="M317.589,884.088c-17.038,-22.308 -25.445,-51.553 -23.97,-80.926c3.923,-78.175 61.316,-162.024 61.316,-162.024c0,0 -21.456,87.039 6.272,144.713c27.197,56.57 93.165,83.287 112.267,90.647c-20.84,21.45 -48.869,35.354 -81.109,35.354c-28.559,0 -54.694,-10.463 -74.776,-27.764Z" style="fill:none;stroke:#fff;stroke-width:6px;"/></g><g id="LETTERING"><path d="M664.487,742.903l-58.732,0c-13.806,0 -18.485,4.68 -18.485,17.784l0,23.165l61.072,0l-2.34,29.015l-58.732,0l0,67.624l-32.525,0l0,-132.674c0,-24.569 9.359,-33.929 35.801,-33.929l73.941,0l0,29.015Z" style="fill:none;fill-rule:nonzero;stroke:#fff;stroke-width:6px;stroke-linecap:butt;stroke-miterlimit:2;"/><path d="M792.993,880.491l-49.607,0c-37.205,0 -53.116,-13.337 -53.116,-46.33l0,-120.273l32.525,0l0,120.273c0,13.337 5.148,17.315 20.591,17.315l49.607,0l0,29.015Z" style="fill:none;fill-rule:nonzero;stroke:#fff;stroke-width:6px;stroke-linecap:butt;stroke-miterlimit:2;"/><path d="M859.724,858.73l-0.234,0l11.7,-38.375l19.421,-62.008l19.656,65.986l-24.804,0l-8.423,27.377l40.714,0l9.36,28.781l33.929,0l-53.35,-152.563c-4.212,-11.934 -9.594,-14.04 -17.082,-14.04c-7.956,0 -13.571,2.808 -18.485,14.04l-53.351,152.563l33.929,0l7.02,-21.761Z" style="fill:none;fill-rule:nonzero;stroke:#fff;stroke-width:6px;stroke-linecap:butt;stroke-miterlimit:2;"/><path d="M1112.25,781.044l-29.951,63.178c-4.446,8.658 -10.53,12.636 -16.38,12.636c-6.084,0 -11.699,-4.446 -16.145,-13.338l-30.419,-62.476l0,99.447l-32.525,0l0,-166.603l32.057,0l47.032,96.171l46.799,-96.171l32.057,0l0,166.603l-32.525,0l0,-99.447Z" style="fill:none;fill-rule:nonzero;stroke:#fff;stroke-width:6px;stroke-linecap:butt;stroke-miterlimit:2;"/><path d="M1280.3,880.491l-58.966,0c-37.205,0 -50.777,-10.997 -50.777,-43.991l0,-122.612l109.743,0l0,29.015l-77.217,0l0,39.077l54.052,0l-2.34,29.015l-51.712,0l0,23.166c0,13.337 5.147,17.315 20.591,17.315l56.626,0l0,29.015Z" style="fill:none;fill-rule:nonzero;stroke:#fff;stroke-width:6px;stroke-linecap:butt;stroke-miterlimit:2;"/></g></g></svg>