<?xml version="1.0" encoding="UTF-8" standalone="no"?><!DOCTYPE svg PUBLIC "-//W3C//DTD SVG 1.1//EN" "http://www.w3.org/Graphics/SVG/1.1/DTD/svg11.dtd"><svg width="100%" height="100%" viewBox="0 0 1600 1600" version="1.1" xmlns="http://www.w3.org/2000/svg" xmlns:xlink="http://www.w3.org/1999/xlink" xml:space="preserve" xmlns:serif="http://www.serif.com/" style="fill-rule:evenodd;clip-rule:evenodd;stroke-linejoin:round;stroke-miterlimit:2;"><g id="solid"><g><circle cx="392.36" cy="795.629" r="114.663" style="fill:url(#_Radial1);"/><g><path d="M353.274,762.628c64.463,-64.994 6.338,-166.792 6.338,-166.792c3.49,-0.099 109.189,71 81.506,206.37c-8.597,11.495 -20.523,23.422 -36.76,34.528c-16.93,-13.52 -33.07,-30.926 -43.349,-52.305c-3.303,-6.87 -5.709,-14.295 -7.735,-21.801Z" style="fill:#fff;"/><path d="M390.292,910.273c-16.474,-20.187 -24.127,-51.673 -4.839,-62.285c111.674,-61.442 67.728,-145.014 67.728,-145.014c0,0 67.885,87.294 21.564,172.379c-20.851,21.54 -50.063,34.938 -82.38,34.938c-0.692,0 -1.383,-0.006 -2.073,-0.018Z" style="fill:#fff;"/><path d="M317.589,882.527c-17.038,-22.308 -25.445,-51.553 -23.97,-80.926c3.923,-78.175 61.316,-162.024 61.316,-162.024c0,0 -21.456,87.039 6.272,144.713c27.197,56.57 94.286,83.857 113.388,91.217c-20.84,21.45 -49.99,34.784 -82.23,34.784c-28.559,0 -54.694,-10.464 -74.776,-27.764Z" style="fill:#fff;"/></g></g><g id="LETTERING"><path d="M664.487,741.342l-58.732,0c-13.806,0 -18.485,4.68 -18.485,17.784l0,23.165l61.072,0l-2.34,29.015l-58.732,0l0,67.624l-32.525,0l0,-132.674c0,-24.569 9.359,-33.929 35.801,-33.929l73.941,0l0,29.015Z" style="fill:#fff;fill-rule:nonzero;"/><path d="M792.993,878.93l-49.607,0c-37.205,0 -53.116,-13.337 -53.116,-46.331l0,-120.272l32.525,0l0,120.272c0,13.338 5.148,17.316 20.591,17.316l49.607,0l0,29.015Z" style="fill:#fff;fill-rule:nonzero;"/><path d="M859.724,857.169l-0.234,0l11.7,-38.375l19.421,-62.008l19.656,65.986l-24.804,0l-8.423,27.377l40.714,0l9.36,28.781l33.929,0l-53.35,-152.564c-4.212,-11.933 -9.594,-14.039 -17.082,-14.039c-7.956,0 -13.571,2.808 -18.485,14.039l-53.351,152.564l33.929,0l7.02,-21.761Z" style="fill:#fff;fill-rule:nonzero;"/><path d="M1112.25,779.483l-29.951,63.178c-4.446,8.658 -10.53,12.636 -16.38,12.636c-6.084,0 -11.699,-4.446 -16.145,-13.338l-30.419,-62.476l0,99.447l-32.525,0l0,-166.603l32.057,0l47.032,96.171l46.799,-96.171l32.057,0l0,166.603l-32.525,0l0,-99.447Z" style="fill:#fff;fill-rule:nonzero;"/><path d="M1280.3,878.93l-58.966,0c-37.205,0 -50.777,-10.998 -50.777,-43.991l0,-122.612l109.743,0l0,29.015l-77.217,0l0,39.077l54.052,0l-2.34,29.015l-51.712,0l0,23.165c0,13.338 5.147,17.316 20.591,17.316l56.626,0l0,29.015Z" style="fill:#fff;fill-rule:nonzero;"/></g></g><defs><radialGradient id="_Radial1" cx="0" cy="0" r="1" gradientUnits="userSpaceOnUse" gradientTransform="matrix(-34.7579,-131.35,131.35,-34.7579,408.822,812.316)"><stop offset="0" style="stop-color:#fff;stop-opacity:0"/><stop offset="1" style="stop-color:#fff;stop-opacity:0.29"/></radialGradient></defs></svg>